<?xml version="1.0" encoding="UTF-8"?>
<!DOCTYPE svg PUBLIC "-//W3C//DTD SVG 1.1//EN" "http://www.w3.org/Graphics/SVG/1.1/DTD/svg11.dtd">
<svg xmlns="http://www.w3.org/2000/svg" version="1.1" viewBox="0 0 81 81" stroke="none">
	<rect width="100%" height="100%" fill="#ffffff"/>
	<path d="M20,20h7v1h-7z M28,20h1v1h-1z M30,20h1v2h-1z M33,20h1v1h-1z M35,20h1v1h-1z M38,20h1v3h-1z M41,20h2v2h-2z M43,20h1v1h-1z M45,20h4v1h-4z M52,20h1v1h-1z M54,20h7v1h-7z M20,21h1v6h-1z M26,21h1v6h-1z M34,21h1v1h-1z M36,21h1v1h-1z M39,21h1v2h-1z M44,21h2v1h-2z M51,21h1v1h-1z M54,21h1v6h-1z M60,21h1v6h-1z M22,22h3v3h-3z M29,22h1v1h-1z M31,22h1v2h-1z M35,22h1v4h-1z M37,22h1v2h-1z M42,22h2v1h-2z M46,22h1v1h-1z M49,22h1v3h-1z M52,22h1v3h-1z M56,22h3v3h-3z M28,23h1v8h-1z M30,23h1v2h-1z M34,23h1v1h-1z M40,23h1v5h-1z M41,23h1v1h-1z M44,23h1v2h-1z M50,23h1v2h-1z M32,24h1v3h-1z M36,24h1v1h-1z M43,24h1v1h-1z M46,24h2v1h-2z M31,25h1v1h-1z M33,25h1v1h-1z M39,25h1v1h-1z M51,25h1v1h-1z M21,26h5v1h-5z M30,26h1v3h-1z M34,26h1v3h-1z M36,26h1v3h-1z M38,26h1v2h-1z M42,26h1v1h-1z M44,26h1v1h-1z M46,26h1v1h-1z M48,26h1v1h-1z M50,26h1v1h-1z M52,26h1v3h-1z M55,26h5v1h-5z M29,27h1v2h-1z M31,27h1v5h-1z M33,27h1v2h-1z M37,27h1v2h-1z M39,27h1v1h-1z M41,27h1v2h-1z M43,27h1v1h-1z M49,27h1v2h-1z M20,28h1v4h-1z M24,28h1v2h-1z M26,28h2v1h-2z M35,28h1v3h-1z M42,28h1v1h-1z M44,28h1v1h-1z M51,28h1v1h-1z M53,28h5v1h-5z M60,28h1v8h-1z M22,29h1v1h-1z M25,29h1v1h-1z M32,29h1v1h-1z M43,29h1v2h-1z M45,29h3v1h-3z M50,29h1v1h-1z M53,29h2v1h-2z M56,29h2v1h-2z M23,30h1v2h-1z M26,30h1v1h-1z M29,30h1v3h-1z M33,30h2v1h-2z M36,30h1v2h-1z M40,30h1v3h-1z M44,30h1v2h-1z M47,30h1v3h-1z M48,30h1v1h-1z M52,30h1v2h-1z M54,30h1v2h-1z M22,31h1v3h-1z M25,31h1v2h-1z M32,31h1v2h-1z M37,31h1v2h-1z M39,31h1v1h-1z M41,31h2v1h-2z M46,31h1v2h-1z M49,31h1v2h-1z M51,31h1v1h-1z M53,31h1v2h-1z M55,31h1v1h-1z M57,31h1v1h-1z M21,32h1v1h-1z M26,32h1v1h-1z M30,32h1v6h-1z M38,32h1v1h-1z M41,32h1v1h-1z M59,32h1v3h-1z M20,33h1v2h-1z M23,33h2v1h-2z M33,33h4v1h-4z M39,33h1v3h-1z M42,33h1v1h-1z M44,33h1v2h-1z M48,33h1v2h-1z M50,33h2v1h-2z M56,33h2v1h-2z M21,34h1v3h-1z M23,34h1v1h-1z M26,34h1v1h-1z M33,34h1v1h-1z M38,34h1v1h-1z M41,34h1v3h-1z M43,34h1v2h-1z M45,34h3v1h-3z M53,34h3v1h-3z M22,35h1v2h-1z M24,35h1v1h-1z M27,35h1v3h-1z M28,35h1v1h-1z M32,35h1v2h-1z M36,35h2v1h-2z M40,35h1v1h-1z M42,35h1v2h-1z M49,35h1v2h-1z M52,35h1v3h-1z M55,35h1v5h-1z M57,35h1v1h-1z M20,36h1v1h-1z M23,36h1v2h-1z M26,36h1v1h-1z M31,36h1v3h-1z M33,36h1v1h-1z M37,36h1v2h-1z M44,36h1v1h-1z M47,36h1v4h-1z M59,36h1v1h-1z M24,37h2v1h-2z M29,37h1v1h-1z M38,37h1v2h-1z M40,37h1v6h-1z M43,37h1v2h-1z M46,37h1v2h-1z M48,37h1v1h-1z M50,37h1v1h-1z M53,37h2v1h-2z M56,37h3v1h-3z M60,37h1v6h-1z M20,38h2v1h-2z M25,38h2v1h-2z M36,38h1v5h-1z M41,38h2v1h-2z M45,38h1v5h-1z M49,38h1v2h-1z M54,38h1v2h-1z M57,38h1v3h-1z M58,38h1v1h-1z M21,39h1v3h-1z M23,39h1v2h-1z M25,39h1v1h-1z M27,39h1v1h-1z M30,39h1v4h-1z M32,39h2v2h-2z M34,39h1v1h-1z M41,39h1v1h-1z M44,39h1v1h-1z M50,39h1v1h-1z M52,39h1v4h-1z M20,40h1v2h-1z M26,40h1v1h-1z M28,40h1v3h-1z M31,40h1v2h-1z M35,40h1v1h-1z M39,40h1v1h-1z M43,40h1v3h-1z M51,40h1v1h-1z M59,40h1v1h-1z M22,41h1v1h-1z M24,41h1v3h-1z M33,41h2v1h-2z M38,41h1v1h-1z M41,41h1v13h-1z M42,41h1v1h-1z M44,41h1v1h-1z M46,41h3v2h-3z M49,41h1v1h-1z M53,41h4v1h-4z M58,41h1v1h-1z M26,42h1v1h-1z M29,42h1v1h-1z M33,42h1v1h-1z M35,42h1v1h-1z M50,42h1v2h-1z M53,42h2v1h-2z M56,42h2v1h-2z M27,43h1v1h-1z M32,43h1v3h-1z M34,43h1v1h-1z M37,43h1v2h-1z M44,43h1v2h-1z M46,43h1v1h-1z M48,43h2v1h-2z M53,43h1v1h-1z M55,43h1v2h-1z M59,43h1v2h-1z M20,44h4v1h-4z M26,44h1v1h-1z M29,44h1v1h-1z M35,44h1v1h-1z M39,44h1v1h-1z M42,44h2v1h-2z M49,44h1v1h-1z M51,44h2v1h-2z M57,44h1v1h-1z M60,44h1v4h-1z M20,45h1v1h-1z M23,45h3v1h-3z M27,45h1v1h-1z M33,45h1v1h-1z M36,45h1v1h-1z M38,45h1v1h-1z M40,45h1v2h-1z M43,45h1v2h-1z M47,45h1v3h-1z M48,45h1v1h-1z M50,45h1v2h-1z M52,45h1v4h-1z M53,45h2v1h-2z M56,45h1v1h-1z M58,45h1v1h-1z M24,46h1v5h-1z M26,46h1v1h-1z M28,46h3v1h-3z M34,46h2v1h-2z M42,46h1v2h-1z M54,46h1v2h-1z M21,47h1v1h-1z M27,47h1v1h-1z M30,47h1v3h-1z M31,47h1v1h-1z M33,47h1v1h-1z M35,47h5v1h-5z M44,47h1v2h-1z M46,47h1v2h-1z M48,47h2v1h-2z M51,47h1v1h-1z M53,47h1v2h-1z M57,47h1v1h-1z M22,48h2v1h-2z M25,48h1v5h-1z M26,48h1v1h-1z M32,48h1v4h-1z M34,48h1v2h-1z M36,48h4v1h-4z M43,48h1v1h-1z M49,48h2v1h-2z M55,48h1v3h-1z M20,49h1v1h-1z M22,49h1v1h-1z M28,49h2v1h-2z M31,49h1v1h-1z M35,49h2v1h-2z M39,49h2v1h-2z M45,49h1v1h-1z M48,49h1v1h-1z M50,49h2v1h-2z M56,49h1v1h-1z M58,49h1v1h-1z M60,49h1v2h-1z M26,50h3v1h-3z M38,50h1v2h-1z M40,50h1v1h-1z M46,50h2v2h-2z M50,50h1v1h-1z M52,50h1v7h-1z M53,50h1v3h-1z M59,50h1v2h-1z M30,51h1v3h-1z M31,51h1v1h-1z M36,51h2v1h-2z M44,51h1v3h-1z M49,51h1v2h-1z M57,51h1v1h-1z M20,52h2v1h-2z M23,52h2v1h-2z M26,52h3v1h-3z M34,52h1v3h-1z M37,52h1v1h-1z M39,52h2v1h-2z M42,52h2v1h-2z M48,52h1v5h-1z M51,52h1v1h-1z M54,52h3v1h-3z M28,53h2v2h-2z M32,53h2v2h-2z M38,53h1v1h-1z M40,53h1v1h-1z M43,53h1v2h-1z M45,53h1v1h-1z M47,53h1v2h-1z M56,53h5v1h-5z M20,54h7v1h-7z M31,54h1v4h-1z M37,54h1v2h-1z M51,54h1v1h-1z M54,54h1v1h-1z M56,54h1v3h-1z M57,54h1v1h-1z M59,54h2v3h-2z M20,55h1v6h-1z M26,55h1v6h-1z M29,55h2v2h-2z M32,55h1v1h-1z M38,55h1v2h-1z M40,55h1v1h-1z M42,55h1v2h-1z M46,55h1v2h-1z M49,55h1v1h-1z M22,56h3v3h-3z M28,56h1v1h-1z M33,56h1v5h-1z M34,56h1v1h-1z M36,56h1v1h-1z M44,56h2v1h-2z M51,56h1v3h-1z M53,56h3v1h-3z M30,57h1v2h-1z M35,57h1v2h-1z M40,57h1v1h-1z M43,57h2v1h-2z M47,57h1v3h-1z M55,57h1v1h-1z M58,57h2v1h-2z M34,58h1v1h-1z M41,58h1v3h-1z M43,58h1v1h-1z M53,58h1v3h-1z M57,58h1v1h-1z M60,58h1v2h-1z M32,59h1v1h-1z M37,59h1v2h-1z M39,59h2v1h-2z M49,59h2v1h-2z M52,59h1v2h-1z M54,59h2v2h-2z M59,59h1v2h-1z M21,60h5v1h-5z M28,60h1v1h-1z M30,60h1v1h-1z M34,60h3v1h-3z M38,60h1v1h-1z M42,60h1v1h-1z M44,60h1v1h-1z M46,60h1v1h-1z M49,60h1v1h-1z M56,60h1v1h-1z" fill="#000000"/>
</svg>
